<svg width="48" height="42" viewBox="0 0 48 42" fill="none" xmlns="http://www.w3.org/2000/svg">
<path fill-rule="evenodd" clip-rule="evenodd" d="M16.8306 0.393161C17.6507 -0.172682 18.7471 -0.12354 19.5133 0.513384L31.7186 10.6599L44.4162 0.81572C45.8764 -0.316334 48 0.724346 48 2.57196V28.7248C48 29.44 47.6558 30.1114 47.0752 30.529L31.5647 41.6826L18.0138 29.6867L3.53802 40.3228C2.07042 41.4012 0 40.3532 0 38.532V12.0063L16.8306 0.393161ZM15.2903 27.2757L3.55556 16.8876V35.8978L15.2903 27.2757ZM4.65618 13.1133L29.902 35.4621V13.7735L18.0178 3.89385L4.65618 13.1133ZM33.4575 13.8107V35.942L44.4444 28.0413V5.29277L33.4575 13.8107Z" fill="white"/>
</svg>
